<svg xmlns="http://www.w3.org/2000/svg" aria-hidden="true" style="position:absolute;width:0;height:0;overflow:hidden">
  <defs>
    <symbol id="icon-twitter" viewBox="0 0 32 32">
      <path d="M29.333 7.898c-.992.435-2.048.723-3.15.863a5.44 5.44 0 0 0 2.405-3.022 10.916 10.916 0 0 1-3.467 1.323 5.465 5.465 0 0 0-9.456 3.738c0 .433.037.85.127 1.247-4.545-.222-8.567-2.4-11.268-5.718a5.5 5.5 0 0 0-.748 2.763c0 1.893.975 3.572 2.428 4.543a5.412 5.412 0 0 1-2.47-.673v.06a5.493 5.493 0 0 0 4.38 5.372c-.445.122-.93.18-1.433.18-.35 0-.703-.02-1.035-.093.708 2.165 2.718 3.757 5.108 3.808a10.985 10.985 0 0 1-6.778 2.332c-.448 0-.878-.02-1.308-.075a15.39 15.39 0 0 0 8.387 2.453c10.06 0 15.56-8.333 15.56-15.557 0-.242-.008-.475-.02-.707a10.91 10.91 0 0 0 2.74-2.838z"/>
    </symbol>
    <symbol id="icon-facebook" viewBox="0 0 32 32">
      <path d="M19.52 4.64h.96v3.6h-1.2c-.48 0-.96 0-1.2.24s-.24.48-.24 1.04v1.28h2.64v3.04h-2.64v13.2h-4.08V13.76H11.6v-3.04h2.16V9.68c0-1.76.24-3.04.72-3.6.72-1.04 2.16-1.52 4.32-1.52.24.08.48.08.72.08z"/>
    </symbol>
    <symbol id="icon-instagram" viewBox="0 0 32 32">
      <path d="M28.718 10.756a9.264 9.264 0 0 0-.596-3.145 6.547 6.547 0 0 0-3.743-3.737 9.42 9.42 0 0 0-3.108-.596c-1.367-.061-1.801-.078-5.273-.078s-3.916 0-5.274.078a9.418 9.418 0 0 0-3.106.596 6.541 6.541 0 0 0-3.743 3.737 9.288 9.288 0 0 0-.596 3.101c-.061 1.367-.08 1.8-.08 5.265s0 3.909.08 5.265a9.335 9.335 0 0 0 .596 3.104 6.548 6.548 0 0 0 3.744 3.735 9.37 9.37 0 0 0 3.106.639c1.369.061 1.803.079 5.274.079s3.917 0 5.274-.079a9.362 9.362 0 0 0 3.108-.595 6.555 6.555 0 0 0 3.743-3.737 9.346 9.346 0 0 0 .596-3.104c.061-1.365.08-1.798.08-5.265-.003-3.466-.003-3.906-.082-5.264zM15.99 22.531c-3.631 0-6.572-2.936-6.572-6.561s2.941-6.561 6.572-6.561c3.628 0 6.572 2.936 6.572 6.561s-2.944 6.561-6.572 6.561zm6.834-11.835a1.53 1.53 0 1 1 0-3.06 1.53 1.53 0 1 1 0 3.06z"/>
      <path d="M15.992 19.976a4.004 4.004 0 1 0 0-8.009 4.004 4.004 0 0 0 0 8.009z"/>
    </symbol>
    <symbol id="icon-chocolate" viewBox="0 0 32 32">
<path fill="#fcf1e0" style="fill: var(--color1, #fcf1e0)" d="M3.944 20.076l10.777-17.424 0.64-0.674 8.236 5.491 0.056 3.314 2.010 3.28-8.88 14.077-12.839-8.063z"></path>
<path fill="none" stroke="#fd9222" style="stroke: var(--color2, #fd9222)" stroke-linejoin="round" stroke-linecap="round" stroke-miterlimit="4" stroke-width="2.6667" d="M22.097 23.031l-14.186-8.864M11.824 7.75l14.185 8.864M11.093 25.016l11.736-19.25M27.639 13.941c-3.040-1.899-4.234-3.384-2.278-6.592l-9.626-6.015-11.736 19.25 14.186 8.864 9.454-15.507z"></path>
</symbol>
<symbol id="icon-x-close" viewBox="0 0 32 32">
<path stroke-linejoin="round" stroke-linecap="round" stroke-miterlimit="4" stroke-width="2.2857" d="M24 8l-16 16"></path>
<path stroke-linejoin="round" stroke-linecap="round" stroke-miterlimit="4" stroke-width="2.2857" d="M8 8l16 16"></path>
</symbol>
<symbol id="icon-mail" viewBox="0 0 32 32">
<path stroke-linejoin="round" stroke-linecap="round" stroke-miterlimit="4" stroke-width="2.6667" d="M5.333 5.333h21.333c1.467 0 2.667 1.2 2.667 2.667v16c0 1.467-1.2 2.667-2.667 2.667h-21.333c-1.467 0-2.667-1.2-2.667-2.667v-16c0-1.467 1.2-2.667 2.667-2.667z"></path>
<path stroke-linejoin="round" stroke-linecap="round" stroke-miterlimit="4" stroke-width="2.6667" d="M29.333 8l-13.333 9.333-13.333-9.333"></path>
</symbol>
<symbol id="icon-phone" viewBox="0 0 32 32">
<path stroke-linejoin="round" stroke-linecap="round" stroke-miterlimit="4" stroke-width="2.6667" d="M29.333 22.56v4c0.001 0.371-0.075 0.739-0.223 1.079s-0.367 0.646-0.641 0.897c-0.274 0.251-0.597 0.442-0.948 0.561s-0.725 0.163-1.094 0.13c-4.103-0.446-8.044-1.848-11.507-4.093-3.222-2.047-5.953-4.778-8-8-2.253-3.478-3.656-7.439-4.093-11.56-0.033-0.369 0.010-0.74 0.129-1.091s0.308-0.673 0.558-0.947c0.25-0.273 0.553-0.492 0.892-0.641s0.705-0.227 1.075-0.227h4c0.647-0.006 1.274 0.223 1.765 0.645s0.811 1.008 0.902 1.649c0.169 1.28 0.482 2.537 0.933 3.747 0.179 0.477 0.218 0.996 0.112 1.495s-0.353 0.956-0.712 1.319l-1.693 1.693c1.898 3.338 4.662 6.102 8 8l1.693-1.693c0.362-0.359 0.82-0.606 1.319-0.712s1.017-0.067 1.495 0.112c1.21 0.451 2.467 0.765 3.747 0.933 0.648 0.091 1.239 0.418 1.662 0.917s0.647 1.136 0.631 1.79z"></path>
</symbol>
<symbol id="icon-user" viewBox="0 0 32 32">
<path stroke-linejoin="round" stroke-linecap="round" stroke-miterlimit="4" stroke-width="2.6667" d="M26.667 28v-2.667c0-1.415-0.562-2.771-1.562-3.771s-2.357-1.562-3.771-1.562h-10.667c-1.415 0-2.771 0.562-3.771 1.562s-1.562 2.357-1.562 3.771v2.667"></path>
<path stroke-linejoin="round" stroke-linecap="round" stroke-miterlimit="4" stroke-width="2.6667" d="M16 14.667c2.945 0 5.333-2.388 5.333-5.333s-2.388-5.333-5.333-5.333c-2.946 0-5.333 2.388-5.333 5.333s2.388 5.333 5.333 5.333z"></path>
</symbol>
<symbol id="icon-checkbox" viewBox="0 0 32 32">
<path fill="#fff" style="fill: var(--color1, #fff)" d="M12.636 31.213c1.395 0 2.449-0.536 3.163-1.607l15.448-23.28c0.257-0.379 0.446-0.753 0.569-1.121 0.123-0.379 0.184-0.742 0.184-1.088 0-0.96-0.335-1.752-1.004-2.377-0.658-0.636-1.473-0.954-2.444-0.954-0.669 0-1.238 0.134-1.707 0.402-0.457 0.257-0.893 0.703-1.305 1.339l-12.971 20.368-6.494-7.782c-0.703-0.815-1.584-1.222-2.644-1.222-0.993 0-1.813 0.318-2.46 0.954s-0.971 1.434-0.971 2.393c0 0.435 0.067 0.848 0.201 1.238 0.145 0.379 0.407 0.775 0.787 1.188l8.619 10.159c0.792 0.926 1.802 1.389 3.029 1.389z"></path>
</symbol>
<symbol id="icon-burger" viewBox="0 0 32 32">
      <path d="M4.799 8.001c0-0.424 0.169-0.831 0.469-1.131s0.707-0.469 1.131-0.469h19.2c0.424 0 0.831 0.169 1.131 0.469s0.469 0.707 0.469 1.131-0.169 0.831-0.469 1.131c-0.3 0.3-0.707 0.469-1.131 0.469h-19.2c-0.424 0-0.831-0.169-1.131-0.469s-0.469-0.707-0.469-1.131z"></path>
      <path d="M4.799 16.001c0-0.424 0.169-0.831 0.469-1.131s0.707-0.469 1.131-0.469h19.2c0.424 0 0.831 0.169 1.131 0.469s0.469 0.707 0.469 1.131c0 0.424-0.169 0.831-0.469 1.131s-0.707 0.469-1.131 0.469h-19.2c-0.424 0-0.831-0.169-1.131-0.469s-0.469-0.707-0.469-1.131z"></path>
      <path d="M4.799 24.001c0-0.424 0.169-0.831 0.469-1.131s0.707-0.469 1.131-0.469h19.2c0.424 0 0.831 0.169 1.131 0.469s0.469 0.707 0.469 1.131c0 0.424-0.169 0.831-0.469 1.131s-0.707 0.469-1.131 0.469h-19.2c-0.424 0-0.831-0.169-1.131-0.469s-0.469-0.707-0.469-1.131z"></path>
    </symbol>
  </defs>
</svg>